<?xml version="1.0" encoding="utf-8"?>
<!-- Generator: Adobe Illustrator 26.0.1, SVG Export Plug-In . SVG Version: 6.00 Build 0)  -->
<svg version="1.1" id="Layer_1" xmlns="http://www.w3.org/2000/svg" xmlns:xlink="http://www.w3.org/1999/xlink" x="0px" y="0px"
	 viewBox="0 0 278.9 126" style="enable-background:new 0 0 278.9 126;" xml:space="preserve">
<style type="text/css">
	.st0{clip-path:url(#SVGID_00000120541546588984646020000012279568018883999651_);fill:#A5BE00;}
	.st1{fill:#EBF2FA;}
	.st2{font-family:'NotoSerifDisplay-ExtraLight';}
	.st3{font-size:30.1575px;}
	.st4{font-family:'NotoSerifDisplay-Light';}
	.st5{font-size:31.995px;}
	.st6{fill:#A5BE00;}
	.st7{font-family:'DMSans-Regular';}
	.st8{font-size:7.0007px;}
	.st9{fill:none;stroke:#A5BE00;stroke-width:0.7502;}
</style>
<g>
	<g>
		<defs>
			<rect id="SVGID_1_" x="9.5" width="63" height="126"/>
		</defs>
		<clipPath id="SVGID_00000103225170393333947180000005553293990308012699_">
			<use xlink:href="#SVGID_1_"  style="overflow:visible;"/>
		</clipPath>
		<path style="clip-path:url(#SVGID_00000103225170393333947180000005553293990308012699_);fill:#A5BE00;" d="M72,125.5H10V0.5h62
			V125.5 M9.5,0v126h63V0H9.5"/>
	</g>
</g>
<text transform="matrix(1 0 0 1 30.472 42.7683)" class="st1 st2 st3">D</text>
<text transform="matrix(1 0 0 1 99.0999 73.6936)" class="st1 st4 st5">D</text>
<text transform="matrix(1 0 0 1 121.6224 73.6936)" class="st1 st4 st5">i</text>
<text transform="matrix(1 0 0 1 131.2835 73.6936)" class="st1 st4 st5">g</text>
<text transform="matrix(1 0 0 1 148.0794 73.6936)" class="st1 st4 st5">i</text>
<text transform="matrix(1 0 0 1 157.7415 73.6936)" class="st1 st4 st5">t</text>
<text transform="matrix(1 0 0 1 168.0433 73.6936)" class="st1 st4 st5">a</text>
<text transform="matrix(1 0 0 1 185.3831 73.6936)" class="st1 st4 st5">l</text>
<text transform="matrix(1 0 0 1 194.5003 73.6936)" class="st1 st4 st5"> </text>
<text transform="matrix(1 0 0 1 201.6985 73.6936)" class="st1 st4 st5">S</text>
<text transform="matrix(1 0 0 1 218.3021 73.6936)" class="st1 st4 st5">o</text>
<text transform="matrix(1 0 0 1 236.0901 73.6936)" class="st1 st4 st5">k</text>
<text transform="matrix(1 0 0 1 253.8782 73.6936)" class="st1 st4 st5">o</text>
<text transform="matrix(1 0 0 1 271.6585 73.6936)" class="st1 st4 st5"> </text>
<text transform="matrix(1 0 0 1 33.2962 105.3069)" class="st1 st2 st3">S</text>
<text transform="matrix(1 0 0 1 101.3494 93.1572)" class="st6 st7 st8">M</text>
<text transform="matrix(1 0 0 1 109.3797 93.1572)" class="st6 st7 st8">A</text>
<text transform="matrix(1 0 0 1 116.1282 93.1572)" class="st6 st7 st8">R</text>
<text transform="matrix(1 0 0 1 122.3802 93.1572)" class="st6 st7 st8">K</text>
<text transform="matrix(1 0 0 1 128.554 93.1572)" class="st6 st7 st8">E</text>
<text transform="matrix(1 0 0 1 134.6028 93.1572)" class="st6 st7 st8">T</text>
<text transform="matrix(1 0 0 1 140.6243 93.1572)" class="st6 st7 st8">P</text>
<text transform="matrix(1 0 0 1 146.7767 93.1572)" class="st6 st7 st8">L</text>
<text transform="matrix(1 0 0 1 152.553 93.1572)" class="st6 st7 st8">A</text>
<text transform="matrix(1 0 0 1 159.3021 93.1572)" class="st6 st7 st8">C</text>
<text transform="matrix(1 0 0 1 166.4427 93.1572)" class="st6 st7 st8">E</text>
<text transform="matrix(1 0 0 1 172.4915 93.1572)" class="st6 st7 st8"> </text>
<text transform="matrix(1 0 0 1 176.4466 93.1572)" class="st6 st7 st8">F</text>
<text transform="matrix(1 0 0 1 182.2855 93.1572)" class="st6 st7 st8">O</text>
<text transform="matrix(1 0 0 1 189.8743 93.1572)" class="st6 st7 st8">R</text>
<text transform="matrix(1 0 0 1 196.1263 93.1572)" class="st6 st7 st8"> </text>
<text transform="matrix(1 0 0 1 200.0814 93.1572)" class="st6 st7 st8">F</text>
<text transform="matrix(1 0 0 1 205.9202 93.1572)" class="st6 st7 st8">R</text>
<text transform="matrix(1 0 0 1 212.1712 93.1572)" class="st6 st7 st8">E</text>
<text transform="matrix(1 0 0 1 218.22 93.1572)" class="st6 st7 st8">E</text>
<text transform="matrix(1 0 0 1 224.2689 93.1572)" class="st6 st7 st8">L</text>
<text transform="matrix(1 0 0 1 230.0443 93.1572)" class="st6 st7 st8">A</text>
<text transform="matrix(1 0 0 1 236.7933 93.1572)" class="st6 st7 st8">N</text>
<text transform="matrix(1 0 0 1 243.7171 93.1572)" class="st6 st7 st8">C</text>
<text transform="matrix(1 0 0 1 250.8577 93.1572)" class="st6 st7 st8">E</text>
<text transform="matrix(1 0 0 1 256.9066 93.1572)" class="st6 st7 st8">R</text>
<text transform="matrix(1 0 0 1 263.1575 93.1572)" class="st6 st7 st8">S</text>
<line class="st9" x1="0" y1="62.8" x2="81.8" y2="62.8"/>
</svg>
