<?xml version="1.0" encoding="utf-8"?>
<!-- Generator: Adobe Illustrator 26.0.1, SVG Export Plug-In . SVG Version: 6.00 Build 0)  -->
<svg version="1.1" id="Layer_1" xmlns="http://www.w3.org/2000/svg" xmlns:xlink="http://www.w3.org/1999/xlink" x="0px" y="0px"
	 viewBox="0 0 278.9 126" style="enable-background:new 0 0 278.9 126;" xml:space="preserve">
<style type="text/css">
	.st0{clip-path:url(#SVGID_00000107545975949665221580000014383826751170384530_);fill:#A5BE00;}
	.st1{fill:#EBF2FA;}
	.st2{font-family:'NotoSerifDisplay-ExtraLight';}
	.st3{font-size:30.1575px;}
	.st4{font-family:'NotoSerifDisplay-Light';}
	.st5{font-size:31.995px;}
	.st6{fill:none;stroke:#A5BE00;stroke-width:0.7502;}
</style>
<g>
	<g>
		<defs>
			<rect id="SVGID_1_" x="9.5" width="63" height="126"/>
		</defs>
		<clipPath id="SVGID_00000066482023559027204670000015547954164154288033_">
			<use xlink:href="#SVGID_1_"  style="overflow:visible;"/>
		</clipPath>
		<path style="clip-path:url(#SVGID_00000066482023559027204670000015547954164154288033_);fill:#A5BE00;" d="M72,125.5H10V0.5h62
			V125.5 M9.5,0v126h63V0H9.5"/>
	</g>
</g>
<text transform="matrix(1 0 0 1 30.472 42.7683)" class="st1 st2 st3">D</text>
<text transform="matrix(1 0 0 1 99.0999 73.6936)" class="st1 st4 st5">D</text>
<text transform="matrix(1 0 0 1 121.6224 73.6936)" class="st1 st4 st5">i</text>
<text transform="matrix(1 0 0 1 131.2835 73.6936)" class="st1 st4 st5">g</text>
<text transform="matrix(1 0 0 1 148.0794 73.6936)" class="st1 st4 st5">i</text>
<text transform="matrix(1 0 0 1 157.7415 73.6936)" class="st1 st4 st5">t</text>
<text transform="matrix(1 0 0 1 168.0433 73.6936)" class="st1 st4 st5">a</text>
<text transform="matrix(1 0 0 1 185.3831 73.6936)" class="st1 st4 st5">l</text>
<text transform="matrix(1 0 0 1 194.5003 73.6936)" class="st1 st4 st5"> </text>
<text transform="matrix(1 0 0 1 201.6985 73.6936)" class="st1 st4 st5">S</text>
<text transform="matrix(1 0 0 1 218.3021 73.6936)" class="st1 st4 st5">o</text>
<text transform="matrix(1 0 0 1 236.0901 73.6936)" class="st1 st4 st5">k</text>
<text transform="matrix(1 0 0 1 253.8782 73.6936)" class="st1 st4 st5">o</text>
<text transform="matrix(1 0 0 1 271.6585 73.6936)" class="st1 st4 st5"> </text>
<text transform="matrix(1 0 0 1 33.2962 105.3069)" class="st1 st2 st3">S</text>
<line class="st6" x1="0" y1="62.8" x2="81.8" y2="62.8"/>
</svg>
